# xmcd
#
# Track frame offsets: 
#        150
#        10852
#        16739
#        29410
#        36086
#        38213
#        51763
#        56820
#        67271
#        72243
#        79224
#        94288
#        106590
#        119439
#        134027
#        146332
#        152270
#        153988
#        168216
#        183293
#        195283
#        206962
#        219009
#        232935
#        247115
#        274911
#        304288
#        319526
#
# Disc length: 4439 seconds
#
# Revision: 0
# Processed by: cddbd v1.5.2PL0 Copyright (c) Steve Scherf et al.
# Submitted via: ExactAudioCopy v0.95b3
#
DISCID=8211551c
DTITLE=Elvis Presley  - American Sound - Disc 09 - PC 89  
DYEAR=1900
DGENRE=
TTITLE0=Only The Strong Survive - Take 1 - breakdown
TTITLE1=Only The Strong Survive - Take 2 - 2 false starts and breakdown
TTITLE2=Only The Strong Survive - Take 3 - complete
TTITLE3=Only The Strong Survive - Take 4 - 4 false starts and breakdown
TTITLE4=Only The Strong Survive - Take 5 - 3 false starts
TTITLE5=Only The Strong Survive - Take 6 - complete
TTITLE6=Only The Strong Survive - Take 7 - breakdown
TTITLE7=Only The Strong Survive - Take 8 - breakdown
TTITLE8=Only The Strong Survive - Take 10 - 3 false starts
TTITLE9=Only The Strong Survive - Take 11 - breakdown
TTITLE10=Only The Strong Survive - Take 22 - complete
TTITLE11=Only The Strong Survive - Take 29 - master
TTITLE12=Only The Strong Survive - Quad remix
TTITLE13=Only The Strong Survive - 1980 remix
TTITLE14=Only The Strong Survive - 1987 remix
TTITLE15=It Keeps Right On A-Hurtin' - Take 1 - false start and breakdow
TTITLE15=n
TTITLE16=It Keeps Right On A-Hurtin' - Only The Lonely
TTITLE17=It Keeps Right On A-Hurtin' - Take 2 - false start and complete
TTITLE18=It Keeps Right On A-Hurtin' - Take 3 - 2 false starts and maste
TTITLE18=r
TTITLE19=It Keeps Right On A-Hurtin'  +strings March 21st - backing voc
TTITLE19=als March 25th
TTITLE20=It Keeps Right On A-Hurtin' - Quad remix
TTITLE21=It Keeps Right On A-Hurtin' - 1987 remix
TTITLE22=Any Day Now - Take 1 - false start and breakdown
TTITLE23=Any Day Now - Take 2 - complete
TTITLE24=Any Day Now - Take 3 - 6 false starts and breakdown
TTITLE25=Any Day Now - Take 4 - 7 false starts, breakdown and pick up
TTITLE26=Any Day Now - Take 5 - 2 false starts and breakdown
TTITLE27=Any Day Now - Take 6 - master
EXTD=
EXTT0=
EXTT1=
EXTT2=
EXTT3=
EXTT4=
EXTT5=
EXTT6=
EXTT7=
EXTT8=
EXTT9=
EXTT10=
EXTT11=
EXTT12=
EXTT13=
EXTT14=
EXTT15=
EXTT16=
EXTT17=
EXTT18=
EXTT19=
EXTT20=
EXTT21=
EXTT22=
EXTT23=
EXTT24=
EXTT25=
EXTT26=
EXTT27=
PLAYORDER=
